<?xml version="1.0" standalone="no"?>
<!DOCTYPE svg PUBLIC "-//W3C//DTD SVG 20010904//EN"
 "http://www.w3.org/TR/2001/REC-SVG-20010904/DTD/svg10.dtd">
<svg version="1.0" xmlns="http://www.w3.org/2000/svg"
 width="894.000000pt" height="894.000000pt" viewBox="0 0 894.000000 894.000000"
 preserveAspectRatio="xMidYMid meet">
<metadata>
Created by potrace 1.14, written by Peter Selinger 2001-2017
</metadata>
<g transform="translate(0.000000,894.000000) scale(0.100000,-0.100000)"
fill="#000000" stroke="none">
<path d="M4111 8924 c-691 -62 -1298 -252 -1881 -587 -609 -350 -1150 -870
-1536 -1477 -135 -213 -288 -512 -379 -745 -305 -773 -390 -1612 -245 -2425
144 -807 502 -1551 1041 -2165 522 -594 1187 -1038 1934 -1292 817 -276 1747
-304 2585 -78 437 118 840 294 1230 538 473 296 935 737 1265 1207 291 413
520 896 650 1370 197 718 217 1439 59 2160 -159 728 -509 1420 -1004 1985
-507 578 -1135 1003 -1871 1269 -562 202 -1263 293 -1848 240z m1509 -767
c608 -346 1445 -825 1861 -1064 l756 -435 6 -331 c4 -182 7 -1159 7 -2171 l-1
-1841 -257 -146 c-258 -147 -2177 -1247 -3040 -1743 -255 -146 -467 -266 -472
-266 -4 0 -853 483 -1886 1074 l-1879 1073 -3 2175 -2 2174 1247 712 c687 392
1534 876 1883 1076 543 312 638 363 655 353 11 -6 517 -294 1125 -640z"/>
<path d="M4245 8043 c-340 -187 -2434 -1385 -2856 -1634 l-116 -69 -6 -211
c-11 -327 -8 -3404 2 -3394 9 10 371 636 1459 2520 267 462 688 1189 935 1615
579 995 719 1241 704 1240 -1 0 -56 -30 -122 -67z"/>
<path d="M4610 8096 c0 -26 115 -229 745 -1316 658 -1135 1130 -1951 1592
-2755 607 -1054 738 -1271 755 -1240 5 9 14 150 18 313 12 395 12 2550 0 2916
-11 340 6 300 -175 411 -165 100 -1564 901 -2280 1305 -324 183 -605 341 -622
352 -18 11 -33 17 -33 14z"/>
<path d="M4463 7383 c-71 -102 -239 -388 -1063 -1808 -653 -1124 -1083 -1863
-1341 -2303 -82 -139 -149 -255 -149 -259 0 -12 669 3 683 16 8 6 439 738 958
1626 519 888 947 1615 951 1615 4 0 42 -60 86 -132 110 -185 1793 -3068 1806
-3095 l11 -23 318 0 c188 0 317 4 317 9 0 12 -160 291 -435 756 -117 198 -450
770 -740 1270 -1114 1920 -1325 2281 -1365 2333 l-18 23 -19 -28z"/>
<path d="M1416 2561 c-26 -5 44 -48 630 -385 362 -209 1052 -604 1533 -879
773 -441 878 -498 905 -493 53 11 519 273 2101 1181 506 291 939 539 963 553
23 13 42 26 42 28 0 7 -6143 2 -6174 -5z"/>
</g>
</svg>
